<svg width="213" height="44" viewBox="0 0 213 44" fill="none" xmlns="http://www.w3.org/2000/svg">
<g clip-path="url(#clip0_658_111)">
<path d="M212 -40H0V84H212V-40Z" fill="#191919"/>
<path d="M31.4541 19.3912C31.4541 19.3912 29.9108 24.0044 29.7947 24.396C29.7501 24.0044 28.6261 15.7143 28.6261 15.7143C25.9943 15.7143 24.5935 17.4932 23.8531 19.3912C23.8531 19.3912 21.9795 24.0215 21.8279 24.413C21.8189 24.0471 21.5424 19.4424 21.5424 19.4424C21.3817 17.1272 19.1692 15.7228 17.376 15.7228L19.535 28.2857C22.2917 28.2772 23.7728 26.4983 24.549 24.6088C24.549 24.6088 26.1994 20.5233 26.2708 20.336C26.2886 20.5148 27.4574 28.2857 27.4574 28.2857C30.2141 28.2857 31.704 26.6175 32.507 24.796L36.3611 15.7143C33.6311 15.7143 32.1947 17.4932 31.4541 19.3912Z" fill="white" fill-opacity="0.5"/>
<path d="M54.4473 26.1905H56.4112V22.2012H57.8878C60.147 22.2012 61.7565 21.2185 61.7565 19.0038V18.9452C61.7565 16.7452 60.2061 15.7038 57.8435 15.7038H54.4473V26.1905ZM56.4112 20.7932V17.2145H57.8435C59.0986 17.2145 59.8369 17.6985 59.8369 18.9452V19.0038C59.8369 20.1625 59.1429 20.7932 57.8435 20.7932H56.4112ZM63.2978 26.1905H65.0845V22.2012C65.0845 20.5732 66.0294 20.0745 67.5947 20.0598V18.4025C66.2953 18.4172 65.5718 18.9892 65.0845 19.9572V18.5198H63.2978V26.1905ZM72.4778 24.9585C71.1193 24.9585 70.3367 23.9758 70.3367 22.4065V22.2892C70.3367 20.7052 71.1489 19.7518 72.4778 19.7518C73.8068 19.7518 74.6041 20.7198 74.6041 22.3038V22.4065C74.6041 23.9758 73.8068 24.9585 72.4778 24.9585ZM72.463 26.3372C74.737 26.3372 76.4352 24.7825 76.4352 22.3918V22.2745C76.4352 19.9278 74.737 18.3585 72.4778 18.3585C70.2038 18.3585 68.5057 19.9425 68.5057 22.3185V22.4358C68.5057 24.7678 70.1891 26.3372 72.463 26.3372ZM78.3596 26.1905H80.1463V19.8545H81.9035V18.5198H80.1463V17.4198C80.1463 16.7598 80.4416 16.2905 81.1652 16.2905C81.49 16.2905 81.7706 16.3492 81.9773 16.4225V15.0438C81.6525 14.9412 81.3867 14.8972 80.9584 14.8972C79.3046 14.8972 78.3596 15.8065 78.3596 17.4932V18.5198H77.3112V19.8545H78.3596V26.1905ZM86.5072 26.3372C88.4858 26.3372 89.8 25.4572 90.051 23.8438H88.3234C88.1905 24.5918 87.6294 25.0172 86.5515 25.0172C85.2225 25.0172 84.4842 24.1958 84.4251 22.7438H90.0806V22.2305C90.0806 19.4878 88.3529 18.3585 86.4333 18.3585C84.2332 18.3585 82.5941 19.9425 82.5941 22.3185V22.4358C82.5941 24.8558 84.2332 26.3372 86.5072 26.3372ZM84.4546 21.5558C84.6318 20.3678 85.3554 19.6492 86.4333 19.6492C87.5408 19.6492 88.22 20.2358 88.3086 21.5558H84.4546ZM94.3918 26.3372C96.3704 26.3372 97.4779 25.4425 97.4779 23.8878C97.4779 22.2598 96.4 21.8198 94.5837 21.5412C93.3581 21.3358 92.989 21.1158 92.989 20.5585C92.989 20.0158 93.4467 19.6492 94.2146 19.6492C95.0415 19.6492 95.4402 19.9718 95.5878 20.6758H97.2416C97.0497 18.9452 95.7945 18.3585 94.2146 18.3585C92.7675 18.3585 91.3204 19.1212 91.3204 20.6612C91.3204 22.0985 92.0735 22.6705 94.1112 22.9932C95.2482 23.1838 95.765 23.4185 95.765 24.0492C95.765 24.6945 95.3368 25.0318 94.377 25.0318C93.3286 25.0318 92.9299 24.5772 92.8413 23.7998H91.158C91.2318 25.4278 92.3983 26.3372 94.3918 26.3372ZM101.688 26.3372C103.667 26.3372 104.774 25.4425 104.774 23.8878C104.774 22.2598 103.696 21.8198 101.88 21.5412C100.655 21.3358 100.285 21.1158 100.285 20.5585C100.285 20.0158 100.743 19.6492 101.511 19.6492C102.338 19.6492 102.737 19.9718 102.884 20.6758H104.538C104.346 18.9452 103.091 18.3585 101.511 18.3585C100.064 18.3585 98.6169 19.1212 98.6169 20.6612C98.6169 22.0985 99.37 22.6705 101.408 22.9932C102.545 23.1838 103.062 23.4185 103.062 24.0492C103.062 24.6945 102.633 25.0318 101.673 25.0318C100.625 25.0318 100.226 24.5772 100.138 23.7998H98.4545C98.5283 25.4278 99.6948 26.3372 101.688 26.3372ZM106.386 26.1905H108.173V18.5198H106.386V26.1905ZM107.257 17.2585C107.848 17.2585 108.321 16.8185 108.321 16.2465C108.321 15.6598 107.848 15.2198 107.257 15.2198C106.667 15.2198 106.194 15.6598 106.194 16.2465C106.194 16.8185 106.667 17.2585 107.257 17.2585ZM113.806 24.9585C112.448 24.9585 111.665 23.9758 111.665 22.4065V22.2892C111.665 20.7052 112.477 19.7518 113.806 19.7518C115.135 19.7518 115.933 20.7198 115.933 22.3038V22.4065C115.933 23.9758 115.135 24.9585 113.806 24.9585ZM113.791 26.3372C116.065 26.3372 117.764 24.7825 117.764 22.3918V22.2745C117.764 19.9278 116.065 18.3585 113.806 18.3585C111.532 18.3585 109.834 19.9425 109.834 22.3185V22.4358C109.834 24.7678 111.517 26.3372 113.791 26.3372ZM119.377 26.1905H121.164V21.6732C121.164 20.4558 121.976 19.8398 122.98 19.8398C124.043 19.8398 124.516 20.3678 124.516 21.5265V26.1905H126.303V21.3652C126.303 19.2532 125.21 18.3585 123.659 18.3585C122.39 18.3585 121.533 18.9892 121.164 19.7372V18.5198H119.377V26.1905ZM130.384 26.3372C131.566 26.3372 132.245 25.9118 132.747 25.2518V26.1905H134.504V21.1598C134.504 19.0625 133.146 18.3585 131.418 18.3585C129.69 18.3585 128.258 19.1065 128.11 20.8958H129.838C129.927 20.1332 130.384 19.6932 131.315 19.6932C132.363 19.6932 132.717 20.2065 132.717 21.2332V21.6292H131.758C129.543 21.6292 127.8 22.2745 127.8 24.0638C127.8 25.6625 128.967 26.3372 130.384 26.3372ZM130.813 25.0612C129.927 25.0612 129.572 24.6358 129.572 23.9905C129.572 23.0518 130.443 22.7438 131.802 22.7438H132.717V23.5065C132.717 24.4892 131.905 25.0612 130.813 25.0612ZM136.596 26.1905H138.382V14.9705H136.596V26.1905ZM144.227 26.1905H146.191V22.2012H147.667C149.926 22.2012 151.536 21.2185 151.536 19.0038V18.9452C151.536 16.7452 149.985 15.7038 147.623 15.7038H144.227V26.1905ZM146.191 20.7932V17.2145H147.623C148.878 17.2145 149.616 17.6985 149.616 18.9452V19.0038C149.616 20.1625 148.922 20.7932 147.623 20.7932H146.191ZM154.956 26.3372C156.138 26.3372 156.817 25.9118 157.319 25.2518V26.1905H159.076V21.1598C159.076 19.0625 157.718 18.3585 155.99 18.3585C154.262 18.3585 152.83 19.1065 152.682 20.8958H154.41C154.499 20.1332 154.956 19.6932 155.887 19.6932C156.935 19.6932 157.289 20.2065 157.289 21.2332V21.6292H156.33C154.115 21.6292 152.372 22.2745 152.372 24.0638C152.372 25.6625 153.539 26.3372 154.956 26.3372ZM155.385 25.0612C154.499 25.0612 154.144 24.6358 154.144 23.9905C154.144 23.0518 155.015 22.7438 156.374 22.7438H157.289V23.5065C157.289 24.4892 156.477 25.0612 155.385 25.0612ZM161.123 26.1905H162.91V22.2012C162.91 20.5732 163.855 20.0745 165.42 20.0598V18.4025C164.121 18.4172 163.397 18.9892 162.91 19.9572V18.5198H161.123V26.1905ZM169.693 26.3225C170.239 26.3225 170.623 26.2345 170.904 26.1318V24.7238C170.653 24.8265 170.387 24.8705 170.033 24.8705C169.472 24.8705 169.147 24.5625 169.147 23.8878V19.8545H170.845V18.5198H169.147V16.8332H167.36V18.5198H166.326V19.8545H167.36V24.0492C167.36 25.5012 168.157 26.3225 169.693 26.3225ZM172.515 26.1905H174.302V21.6732C174.302 20.4558 175.114 19.8398 176.118 19.8398C177.182 19.8398 177.654 20.3678 177.654 21.5265V26.1905H179.441V21.3652C179.441 19.2532 178.348 18.3585 176.798 18.3585C175.528 18.3585 174.671 18.9892 174.302 19.7372V18.5198H172.515V26.1905ZM184.896 26.3372C186.874 26.3372 188.189 25.4572 188.44 23.8438H186.712C186.579 24.5918 186.018 25.0172 184.94 25.0172C183.611 25.0172 182.873 24.1958 182.814 22.7438H188.469V22.2305C188.469 19.4878 186.742 18.3585 184.822 18.3585C182.622 18.3585 180.983 19.9425 180.983 22.3185V22.4358C180.983 24.8558 182.622 26.3372 184.896 26.3372ZM182.843 21.5558C183.021 20.3678 183.744 19.6492 184.822 19.6492C185.929 19.6492 186.609 20.2358 186.697 21.5558H182.843ZM190.065 26.1905H191.852V22.2012C191.852 20.5732 192.797 20.0745 194.362 20.0598V18.4025C193.063 18.4172 192.339 18.9892 191.852 19.9572V18.5198H190.065V26.1905Z" fill="white" fill-opacity="0.5"/>
</g>
<defs>
<clipPath id="clip0_658_111">
<rect width="212" height="44" fill="white" transform="translate(0.5)"/>
</clipPath>
</defs>
</svg>
